# xmcd
#
# Track frame offsets:
#	150
#	28450
#	55964
#	88994
#	113683
#	145173
#	166502
#	243819
#
# Disc length: 3553 seconds
#
# Revision: 1
# Processed by: cddbd v1.5.2PL0 Copyright (c) Steve Scherf et al.
# Submitted via: audiograbber 1.83.01
#
DISCID=640ddf08
DTITLE=The Groundhogs - Hoggin' The Stage plus CD1
DYEAR=1971
DGENRE=Blues
TTITLE0=Cherry Red (Live at Leeds 1971)
TTITLE1=Garden (Live at Leeds 1971)
TTITLE2=Split Pt. 1 (Lived at Leeds 1971)
TTITLE3=Groundhog Blues (Live at Leeds 1971)
TTITLE4=Eccentric Man (Live at Leeds 1971)
TTITLE5=Mistreated (Live in London 1971)
TTITLE6=Still A Fool (Live in London 1971)
TTITLE7=Music Is The Food Of Thought (Live in the USA)
EXTD=TECD101\n2 CD Set
EXTT0=
EXTT1=
EXTT2=
EXTT3=
EXTT4=
EXTT5=
EXTT6=
EXTT7=
PLAYORDER=
